# xmcd
# Track frame offsets:
# 150
# 39948
# 48403
# 70372
# 79465
# 97461
# 110752
# 132088
# 151341
# 169558
# 191091
# 206755
# 239098
# 251835
# 270943
# 283862
# 310288
#
# Disc length: 4346 seconds
# Revision: 0
# Processed by: cddbd v1.4PL0 Copyright (c) Steve Scherf et al.
# Submitted via: VisiTrax 2.9.5.181 - For more info visit www.synapsa.com
#
DISCID=0510f811
DTITLE=Various Artist - Blues against Racism
DYEAR=1999
DGENRE=
TTITLE0=Little Bob: We all have a dream
TTITLE1=Juju Messangers: Blues against Racism
TTITLE2=Elmore D.: Sylvester and his Mule
TTITLE3=Roland Malines: Blues du Blanc
TTITLE4=Tao Ravao: Brownskin Woman
TTITLE5=Cajun Express: Le blues du Tac Tac
TTITLE6=Original Blues Mic Mac: Baby Please don't go
TTITLE7=Last Chance Jug Band: Viola Lee Blues
TTITLE8=Soul Finger: Funky Chicago
TTITLE9=The Blues Fellows: Remember Theodore
TTITLE10=Thibaut Chopin and Stan Noubard Pacha: Guitar Mana and the Boogie diseas
TTITLE10=e
TTITLE11=Trashing Blues and R. Le Rouge: Bourgeois Blues
TTITLE12=Earthquake Blues Band: for you my love
TTITLE13=Les Rouquins: Je suis né dans la rue
TTITLE14=Lucy on Strike: so good
TTITLE15=Magic Buck: Shankila Washte
TTITLE16=Spider X: Strange Fruit
EXTD=
EXTT0=
EXTT1=
EXTT2=
EXTT3=
EXTT4=
EXTT5=
EXTT6=
EXTT7=
EXTT8=
EXTT9=
EXTT10=
EXTT11=
EXTT12=
EXTT13=
EXTT14=
EXTT15=
EXTT16=
PLAYORDER=
